<svg xmlns="http://www.w3.org/2000/svg" fill="white" viewBox="0 0 24 24"><path d="M19.19 3.21a.75.75 0 0 1 .81.74v12.97a3.62 3.62 0 0 1-1.46 2.86 4.38 4.38 0 0 1-3.21.71c-.92-.16-1.66-.55-2.2-1.16-.53-.6-.8-1.29-.8-2.06 0-.8.28-1.48.83-2.03.56-.55 1.24-.82 2.05-.82.77 0 1.43.24 1.97.73V7.13l-6.5.95v9.61a3.62 3.62 0 0 1-1.46 2.86 4.38 4.38 0 0 1-3.21.71c-.92-.16-1.66-.55-2.2-1.16-.53-.6-.8-1.29-.8-2.06 0-.8.28-1.48.83-2.03.56-.55 1.24-.82 2.05-.82.77 0 1.43.24 1.97.73V5.58c0-.38.28-.7.66-.75l8.91-1.27c.04-.01.08-.01.12-.01z"/></svg>