<svg xmlns="http://www.w3.org/2000/svg" fill="white" viewBox="0 0 24 24"><path d="M12 0a12 12 0 1 0 .002 24.002A12 12 0 0 0 12 0zm5.25 17.29a.75.75 0 0 1-1.03.27c-2.82-1.73-6.37-2.12-10.58-1.17a.75.75 0 1 1-.34-1.46c4.6-1.06 8.56-.63 11.7 1.27a.75.75 0 0 1 .25 1.09zm1.49-3.1a.94.94 0 0 1-1.29.33c-3.23-1.99-8.14-2.57-11.94-1.42a.94.94 0 1 1-.53-1.8c4.3-1.28 9.7-.63 13.41 1.65.45.28.6.88.35 1.24zm.11-3.21c-3.73-2.2-9.94-2.4-13.51-1.33a1.13 1.13 0 0 1-.65-2.17c4.18-1.27 11.1-1.04 15.4 1.55a1.13 1.13 0 0 1-1.24 1.95z"/></svg>